<svg id="Layer_1" data-name="Layer 1" xmlns="http://www.w3.org/2000/svg" viewBox="0 0 347.4 196.99"><defs><style>.cls-1{fill:#e9551d;}.cls-2{fill:#ef7c10;}.cls-3{fill:#f6a307;}.cls-4{fill:#b91d1b;}.cls-5{fill:#fff;}.cls-6{fill:#020203;}.cls-7{fill:#009035;}.cls-10,.cls-7,.cls-8,.cls-9{fill-rule:evenodd;}.cls-8{fill:#e30016;}.cls-9{fill:#b1c900;}.cls-10{fill:#009ee0;}</style></defs><path class="cls-1" d="M132.43,25a67.06,67.06,0,0,1,11.84,37,62.35,62.35,0,0,0-16.46-18.52,72.4,72.4,0,0,1,8.56,36.33A32.55,32.55,0,0,0,122.56,60c4.3,10.75,8.43,23.54,2.07,33.22a93.32,93.32,0,0,0-6-15,81.24,81.24,0,0,1-10.92,46,59.57,59.57,0,0,0-8.2-29.47,126.42,126.42,0,0,1-5.71,38.43A101.78,101.78,0,0,0,80.66,100a132.76,132.76,0,0,1-9.84,28.19,125.3,125.3,0,0,0-9.87-28c-5.64,9.15-4.66,20.73-3.44,31.38A90.38,90.38,0,0,1,45.87,79.8,34.75,34.75,0,0,0,37.8,98c-7.64-9.9-6.49-23.7-5-36.13A61.79,61.79,0,0,0,17,81.74C15.67,65,23.87,49.11,31.84,34.26A60.07,60.07,0,0,1,14.29,50.39,269.29,269.29,0,0,0,24.79,19a23.14,23.14,0,0,1-7.51,10.82,7.78,7.78,0,0,1-.53,2.07C12.16,42,.62,55.48,0,56.66c0,0,7.28-.82,12.33-5.51-7.81,14.92,5,42.72,11.21,49.74-1.18-3.18-.92-7.67,1.84-9.67-1.35,29.05,22.88,46,22.88,46s-3.32-6.56-.52-10.25c1.57,8,35.9,19.14,35.9,35.14,0-16.23,36.92-28,40.76-50.29.62,0,1.57,6.59-.33,9,17.58-10.33,29.18-43.12,27.9-52.6,2.76,3,4.37,9.78,4.37,9.78s10.59-24.5-.33-45.12C151.88,25,147.94,21.47,144.5,19c1.11,5,3.64,9.58,6.13,14.07A26.35,26.35,0,0,0,132.43,25Z" transform="translate(0 0.03)"/><path class="cls-2" d="M78.56,22C40.72,21.05,26.2,9.6,26.2,0,26.2,17.8,18,24,17.28,29.8A23.17,23.17,0,0,0,24.79,19a271.19,271.19,0,0,1-10.5,31.38A60.19,60.19,0,0,0,31.84,34.26C23.87,49.11,15.67,65,17,81.74A61.3,61.3,0,0,1,32.79,61.87c-1.48,12.43-2.59,26.26,5,36.23a34.73,34.73,0,0,1,8.15-18.2,90.44,90.44,0,0,0,11.61,51.84c-1.18-10.65-2.2-22.23,3.44-31.38a124.14,124.14,0,0,1,9.87,28,132.85,132.85,0,0,0,9.84-28.2,101.58,101.58,0,0,1,13.15,33.15,126.41,126.41,0,0,0,5.7-38.43,59.84,59.84,0,0,1,8.2,29.48,81.16,81.16,0,0,0,10.92-46,95.2,95.2,0,0,1,6,15c6.36-9.7,2.23-22.49-2.06-33.21A32.71,32.71,0,0,1,136.4,80a72.4,72.4,0,0,0-8.56-36.33A62.35,62.35,0,0,1,144.3,62.16a67.08,67.08,0,0,0-11.83-37,26.16,26.16,0,0,1,18.19,8.07c-2.49-4.49-5-9.08-6.13-14.07-5.54-3.93-9.93-5.44-12.43-19C132.07,9.6,116.43,22.88,78.56,22Z" transform="translate(0 0.03)"/><path class="cls-3" d="M57.94,28.19c-6.69,5.81-7.93,18.3-6.65,27a21.77,21.77,0,0,1,6.25-10.6c-1.67,5,.17,10.46,2.17,15.38,2.39,5.9,5.08,11.74,9,16.72a35.11,35.11,0,0,1,1.37-20.53c0,2.46,1.32,4.73,2.5,6.89a119.73,119.73,0,0,1,11.8,31.58C89.72,84,88,71.25,91.38,59.87,96.23,64.72,97.44,72,98.2,78.79a49.89,49.89,0,0,0,4.59-28.53A29,29,0,0,1,110.69,63a46.23,46.23,0,0,0-1-23.38c-1.48-4.75-4.07-9.6-8.63-11.74a18.64,18.64,0,0,0-5.54-1.44c-3.28-.46-6.59-.72-9.9-1a64.07,64.07,0,0,0-12.23-.1,21.66,21.66,0,0,0-11.25,4.36" transform="translate(0 0.03)"/><path class="cls-4" d="M58.94,27.08C57.05,44,93.28,54.82,102.4,28.52,105.22,20.39,59.38,22.75,58.94,27.08Z" transform="translate(0 0.03)"/><path class="cls-5" d="M61.74,33.31c0,2.66,37.25,1.77,37.18-.66,0-.52.26-6.13.3-6.75-10.46.56-28.36.29-37.51,3.08v4.33Z" transform="translate(0 0.03)"/><path class="cls-3" d="M80.3,20.33c6.59,6.85,41.41,8.06,50.3-2.53-6.07,5.08-14.14,4.56-16.89,3.54a7.66,7.66,0,0,0,5.64-5.9C104.17,30.75,99.71,4.49,80.5,18.52,64.63,7,54.2,23.34,42.1,17.67l5.15,3.67s-7.58,5-16.89-3.54a21.69,21.69,0,0,0,4.23,4.69C47.57,27,74.13,25.24,80.3,20.33Z" transform="translate(0 0.03)"/><path class="cls-1" d="M80.5,26.39c11.67,6.49,40.42,6.2,50.1-8.56h0c-8.89,10.56-43.71,9.35-50.3,2.5C74.13,25.24,47.57,27,34.59,22.49,46.69,32.56,70.2,32.13,80.5,26.39Z" transform="translate(0 0.03)"/><path class="cls-1" d="M84.46,156.63c-6.75,3.77-15.9,24.2,1.31,40.33-1.31-15.15,14.3-23.81-1.31-40.33" transform="translate(0 0.03)"/><path class="cls-2" d="M84.07,156.63c-3.31,3.77-6.72,24.2,1.74,40.33-.66-15.15,5.9-23.81-1.74-40.33" transform="translate(0 0.03)"/><path class="cls-6" d="M64.53,153.38c1.34-2.65,18.72,2.66,18.72,2.66s15.31-6.1,18.1-5.15,1.87,15.71,0,15.71-18.07-8.27-18.07-8.27-15.64,8.5-17.18,8.27S63.74,155,64.53,153.38Z" transform="translate(0 0.03)"/><path id="path7" class="cls-7" d="M316,85.94a50.81,50.81,0,0,1-61.58,59.61l-30.89,19.61a81.15,81.15,0,0,0,112.76-110Z" transform="translate(0 0.03)"/><path id="path9" class="cls-8" d="M266.27,45.42A51.1,51.1,0,0,1,278.78,47L309.47,27.5a81.14,81.14,0,0,0-113,110l20.19-30.65a51.39,51.39,0,0,1-1.12-10.68,50.76,50.76,0,0,1,50.76-50.76Z" transform="translate(0 0.03)"/><g id="Layer1003"><path id="path12" class="cls-9" d="M258.73,127.91l-24.61-23.07-43.84,66.52Z" transform="translate(0 0.03)"/><path id="path14" class="cls-9" d="M274.11,65l24.61,23.07,43.83-66.52Z" transform="translate(0 0.03)"/></g><path id="path18" class="cls-10" d="M266.42,62.35a33.84,33.84,0,1,1-33.84,33.83,33.84,33.84,0,0,1,33.84-33.83Z" transform="translate(0 0.03)"/></svg>